<svg id="Layer_2" data-name="Layer 2" xmlns="http://www.w3.org/2000/svg" xmlns:xlink="http://www.w3.org/1999/xlink" viewBox="0 0 841.89 493.71"><defs><style>.cls-1{clip-path:url(#clip-path);}.cls-2{clip-path:url(#clip-path-2);}.cls-3{fill:none;}</style><clipPath id="clip-path" transform="translate(-0.01)"><path d="M284.59,80.12,328.42,290H265.08l-9.33-45H179.33L152.4,290H82.35l29.08-45-70.2-.06,206.88-37.48-6.5-30.24h0l-5.47-27.1-11.49,19.19,13.27,4.86-80.66,0,60.79-94Zm396.05,0H527.52a7.75,7.75,0,0,1,1.41,2.21,22.66,22.66,0,0,1,1.16,5.26c.52,3.06,1.13,3.51.76,5.86-.72,4.54-1.54,4.1-2.93,6.77a36.12,36.12,0,0,0-2.54,6.72.18.18,0,0,0,.2.22c.49,0,1.52.1,1.56,1.63.06,2-2.29,6-2.95,7.15s-2.16,3.47-3.43,4.21c-2.18,1.27-2.85.53-3.17,1.18s-2.5,4.75-2.84,5.87a22.3,22.3,0,0,0-.7,4.4.45.45,0,0,0,.29.46c4.39,1.72,15.83,5.79,18.59,10.46l-38.69,12.55c5.41-.64,11.35-1.37,16.62-2,7.2-.83,18.86-2.13,22.61-2.09a70.71,70.71,0,0,1,9.65,1.17c4.53.61,8.56.76,13.47,1.75a13.8,13.8,0,0,1,7.18,3.35c.21.14,1.19.94,1.19.94,6-.42,15.2-1,17.16-1.17,1-.08,3-.19,3.43-.24,18.62-2.37,28.82-11.28,37.71-16.69,9.83-6,24.61-10.89,35.19-11.17,13.68-.36,23.52,2,30.07,7.92s9.11,13.84,6.47,25.74c-2.54,11.46-6.2,16.75-14.66,22s-17.8,6.94-28.82,5.93c-18.38-1.69-34.8-13.16-41.29-16.9-5.58-3.21-13.25-6.61-21.88-7.38a39.93,39.93,0,0,0-5.06,0c-.59,0-7.6.53-12,.86a12.82,12.82,0,0,1,.59,3.29c-.14,2.25-1.38,3.32-2.76,3.15s-4.42-2.5-5.33-4.46c-.09-.19-.37-.28-.37,0s0,.72,0,1c-.07.62-.44,2.5-1.77,2.88a4.84,4.84,0,0,1-4.06-1,.67.67,0,0,0-1,.29c-.48,1.37-.76,2.18-3.34,1.68-1.77-.19-1.4.5-2.53.72-2.75.52-4.08-.94-6.26-1.95s-1.46-3.08-3.63-3.45c-.42-.08-1.15-.21-1.56-.26a98.8,98.8,0,0,1,3.45,15.75.37.37,0,0,1-.32.42l-2.22.27a.34.34,0,0,0-.31.41c.55,2.87,1.94,8.24,2.24,12.11.54,7,.45,9.1,0,12.59a.36.36,0,0,0,.42.4,7.3,7.3,0,0,0,2.56-1,15.19,15.19,0,0,1,.8-4.08,10.57,10.57,0,0,1,.72-.88,1.81,1.81,0,0,0,.4-.7l.57-2a3.93,3.93,0,0,1,.37-.87l3-5.47s.71-1.49,1.93-1.16a3.87,3.87,0,0,1,2,3.18,12.5,12.5,0,0,1-1.45,4.64l1.29,2.06a5.42,5.42,0,0,0,4.59-.89,19.59,19.59,0,0,0,1.93-1.45c-.56-1.52.79-3.46,4.47-2.75,1.27.53,4.87,3.4.37,6.36a.2.2,0,0,0,.13.37c4.91-.3,4.29,5.64,1,7.43a.55.55,0,0,0-.17.81,5.06,5.06,0,0,1,1.12,3.18s0,1.56-4.76,3.2c0,0-1.46.59-.88,1.67.58.21,1.22.43,2,.67,0,0,4.33,1,3.48,3.37,0,0-.69,2-4.8.69a21.75,21.75,0,0,1-4-.13,58.28,58.28,0,0,1-7.82,1.94,3.82,3.82,0,0,0-2.21,1.33l0,0c-2.65,3-10.76,7.24-14.38,7.28-4,0-4.54-3.07-7.47-6.14-5.69-5.95-6.66-13.4-7.53-20.78a.42.42,0,0,0-.83,0c-1,8.66-1.52,16.45-6.32,20.72-2.92,2.61-7.5,4.66-14.93,6.42-28.19,6.68-58.52,24-55.09,27.92,1.35,1.56,4.54-1.55,10.11-4.11,21-9.66,48.22-11.59,57-10.9a1.3,1.3,0,0,1,1.19,1.19,39.44,39.44,0,0,0,1.35,6.21c.77,2.71,1.64,7.55,4.52,10.24,5.23,4.9,4.51,6.71,3.28,13.28-.8,4.3,5.08,7.88,5.23,8h60.61L595,245H656.5c62.88,0,90.83-28.71,101.51-83.71C763,135.73,762.81,80.12,680.64,80.12ZM410.36,290c.85-.93,1.83-2,3-3.17,2.64-2.71.57-9.59,1.09-12.23.67-3.46,6.65-5.29,7.59-8.68,1.27-4.62-7.85-3.83-3.5-8.71,2.72-3.05,6.7-2,6.43-5-.44-4.87,4.31-8.18,6.31-9.7,8.71-6.6,28.23-17,40.06-20.47,12.4-3.61-4.69-3.28-18.83,1.91-12.85,4.7,16.62-13.75,39.94-19.61,16.61-4.16-12.21-5-38.75,6.7-8.44,3.71-13.14,6-16.52,8.17a.16.16,0,0,1-.23-.2c1.31-2.69,4.07-7.29,3.26-12.05a14.82,14.82,0,0,1,1.08-9c1-1.9.4-7,1.51-9.69a.45.45,0,0,1,.54-.23l14.26,4.47,55.75-19-53.09,7.87-18.41-15.74c-2.6-2.76-5.31-13.62-2.59-17.68a69.9,69.9,0,0,1,9.56-11.68c2.51-2.2,10.18-3.15,13.95-5,4.21-2.12,7.58-.68,10.61-1.17a85.06,85.06,0,0,0,9.68-3,.18.18,0,0,0,.13-.19,28.72,28.72,0,0,0-.31-3.68,35.92,35.92,0,0,1-1-10.19c.31-3.31,3.2-6.2,3.34-8.4s-1.46-4.46-.24-6.61c1.13-2,1.43-3.55,2.72-7.76-.32-2.5-1.91-3.39-.76-5.94.61-1.35,1.64-3.26,2.09-4.21H295l11.08,53.2h76.44l-8.42,40.85,57.6,0-117.59,21.3,55.62-.11L350.29,290ZM615.1,168.43a2,2,0,0,0,2.84-2c.06-5.3,1-7.71,2.14-11.95.46-1.7-1-3.06-2.42-2.28-8.56,4.62-14.81,6.55-18.52,7.37a1.49,1.49,0,0,0-1.1,1.35,1.24,1.24,0,0,0,.83,1.28A73.49,73.49,0,0,1,615.1,168.43Z"/></clipPath><clipPath id="clip-path-2" transform="translate(-0.01)"><path d="M734.77,281.18H731.3l.42-2h9.43l-.42,2h-3.45L735.52,290H733Zm19.91-2L752.53,290h-2.35l1.27-6.43-4.13,5.29h-1.11L744,283.47l-1.3,6.49h-2.35l2.17-10.82h2l2.7,6.74,5.29-6.74Z"/></clipPath></defs><title>ATP_Tour_RGB_Stacked_Mono_POS</title><path d="M284.59,80.12,328.42,290H265.08l-9.33-45H179.33L152.4,290H82.35l29.08-45-70.2-.06,206.88-37.48-6.5-30.24h0l-5.47-27.1-11.49,19.19,13.27,4.86-80.66,0,60.79-94Zm396.05,0H527.52a7.75,7.75,0,0,1,1.41,2.21,22.66,22.66,0,0,1,1.16,5.26c.52,3.06,1.13,3.51.76,5.86-.72,4.54-1.54,4.1-2.93,6.77a36.12,36.12,0,0,0-2.54,6.72.18.18,0,0,0,.2.22c.49,0,1.52.1,1.56,1.63.06,2-2.29,6-2.95,7.15s-2.16,3.47-3.43,4.21c-2.18,1.27-2.85.53-3.17,1.18s-2.5,4.75-2.84,5.87a22.3,22.3,0,0,0-.7,4.4.45.45,0,0,0,.29.46c4.39,1.72,15.83,5.79,18.59,10.46l-38.69,12.55c5.41-.64,11.35-1.37,16.62-2,7.2-.83,18.86-2.13,22.61-2.09a70.71,70.71,0,0,1,9.65,1.17c4.53.61,8.56.76,13.47,1.75a13.8,13.8,0,0,1,7.18,3.35c.21.14,1.19.94,1.19.94,6-.42,15.2-1,17.16-1.17,1-.08,3-.19,3.43-.24,18.62-2.37,28.82-11.28,37.71-16.69,9.83-6,24.61-10.89,35.19-11.17,13.68-.36,23.52,2,30.07,7.92s9.11,13.84,6.47,25.74c-2.54,11.46-6.2,16.75-14.66,22s-17.8,6.94-28.82,5.93c-18.38-1.69-34.8-13.16-41.29-16.9-5.58-3.21-13.25-6.61-21.88-7.38a39.93,39.93,0,0,0-5.06,0c-.59,0-7.6.53-12,.86a12.82,12.82,0,0,1,.59,3.29c-.14,2.25-1.38,3.32-2.76,3.15s-4.42-2.5-5.33-4.46c-.09-.19-.37-.28-.37,0s0,.72,0,1c-.07.62-.44,2.5-1.77,2.88a4.84,4.84,0,0,1-4.06-1,.67.67,0,0,0-1,.29c-.48,1.37-.76,2.18-3.34,1.68-1.77-.19-1.4.5-2.53.72-2.75.52-4.08-.94-6.26-1.95s-1.46-3.08-3.63-3.45c-.42-.08-1.15-.21-1.56-.26a98.8,98.8,0,0,1,3.45,15.75.37.37,0,0,1-.32.42l-2.22.27a.34.34,0,0,0-.31.41c.55,2.87,1.94,8.24,2.24,12.11.54,7,.45,9.1,0,12.59a.36.36,0,0,0,.42.4,7.3,7.3,0,0,0,2.56-1,15.19,15.19,0,0,1,.8-4.08,10.57,10.57,0,0,1,.72-.88,1.81,1.81,0,0,0,.4-.7l.57-2a3.93,3.93,0,0,1,.37-.87l3-5.47s.71-1.49,1.93-1.16a3.87,3.87,0,0,1,2,3.18,12.5,12.5,0,0,1-1.45,4.64l1.29,2.06a5.42,5.42,0,0,0,4.59-.89,19.59,19.59,0,0,0,1.93-1.45c-.56-1.52.79-3.46,4.47-2.75,1.27.53,4.87,3.4.37,6.36a.2.2,0,0,0,.13.37c4.91-.3,4.29,5.64,1,7.43a.55.55,0,0,0-.17.81,5.06,5.06,0,0,1,1.12,3.18s0,1.56-4.76,3.2c0,0-1.46.59-.88,1.67.58.21,1.22.43,2,.67,0,0,4.33,1,3.48,3.37,0,0-.69,2-4.8.69a21.75,21.75,0,0,1-4-.13,58.28,58.28,0,0,1-7.82,1.94,3.82,3.82,0,0,0-2.21,1.33l0,0c-2.65,3-10.76,7.24-14.38,7.28-4,0-4.54-3.07-7.47-6.14-5.69-5.95-6.66-13.4-7.53-20.78a.42.42,0,0,0-.83,0c-1,8.66-1.52,16.45-6.32,20.72-2.92,2.61-7.5,4.66-14.93,6.42-28.19,6.68-58.52,24-55.09,27.92,1.35,1.56,4.54-1.55,10.11-4.11,21-9.66,48.22-11.59,57-10.9a1.3,1.3,0,0,1,1.19,1.19,39.44,39.44,0,0,0,1.35,6.21c.77,2.71,1.64,7.55,4.52,10.24,5.23,4.9,4.51,6.71,3.28,13.28-.8,4.3,5.08,7.88,5.23,8h60.61L595,245H656.5c62.88,0,90.83-28.71,101.51-83.71C763,135.73,762.81,80.12,680.64,80.12ZM410.36,290c.85-.93,1.83-2,3-3.17,2.64-2.71.57-9.59,1.09-12.23.67-3.46,6.65-5.29,7.59-8.68,1.27-4.62-7.85-3.83-3.5-8.71,2.72-3.05,6.7-2,6.43-5-.44-4.87,4.31-8.18,6.31-9.7,8.71-6.6,28.23-17,40.06-20.47,12.4-3.61-4.69-3.28-18.83,1.91-12.85,4.7,16.62-13.75,39.94-19.61,16.61-4.16-12.21-5-38.75,6.7-8.44,3.71-13.14,6-16.52,8.17a.16.16,0,0,1-.23-.2c1.31-2.69,4.07-7.29,3.26-12.05a14.82,14.82,0,0,1,1.08-9c1-1.9.4-7,1.51-9.69a.45.45,0,0,1,.54-.23l14.26,4.47,55.75-19-53.09,7.87-18.41-15.74c-2.6-2.76-5.31-13.62-2.59-17.68a69.9,69.9,0,0,1,9.56-11.68c2.51-2.2,10.18-3.15,13.95-5,4.21-2.12,7.58-.68,10.61-1.17a85.06,85.06,0,0,0,9.68-3,.18.18,0,0,0,.13-.19,28.72,28.72,0,0,0-.31-3.68,35.92,35.92,0,0,1-1-10.19c.31-3.31,3.2-6.2,3.34-8.4s-1.46-4.46-.24-6.61c1.13-2,1.43-3.55,2.72-7.76-.32-2.5-1.91-3.39-.76-5.94.61-1.35,1.64-3.26,2.09-4.21H295l11.08,53.2h76.44l-8.42,40.85,57.6,0-117.59,21.3,55.62-.11L350.29,290ZM615.1,168.43a2,2,0,0,0,2.84-2c.06-5.3,1-7.71,2.14-11.95.46-1.7-1-3.06-2.42-2.28-8.56,4.62-14.81,6.55-18.52,7.37a1.49,1.49,0,0,0-1.1,1.35,1.24,1.24,0,0,0,.83,1.28A73.49,73.49,0,0,1,615.1,168.43Z" transform="translate(-0.01)"/><g class="cls-1"><rect x="32.7" y="59.05" width="743.88" height="230.92"/></g><path d="M378.14,325.46h-35.3l3.51-16.73h90.36l-3.66,16.73H397.76L379.11,415.2H359.33Z" transform="translate(-0.01)"/><path d="M548.53,380.22a61.13,61.13,0,0,1,1.32-11.41l12.59-60.08h19.78l-12.59,59.78a57.2,57.2,0,0,0-1.15,9.43c-.14,14.45,9.67,21.44,24.73,21.44,16.88,0,28.52-9.28,33.14-31l12.43-59.62h19.47l-12.75,61c-6.53,31.34-25.84,47-54.43,47C564.9,416.72,548.31,402.73,548.53,380.22Z" transform="translate(-0.01)"/><path d="M728.11,381.44l18.7,33.76h-21L708.62,384H679.54l-6.38,31.18H653.23l22.31-106.47h44c25.7,0,40.35,11.86,40.15,32.09C759.49,361.51,747.79,376,728.11,381.44Zm11.63-38.79c.11-11.56-8-17.19-22.5-17.19H692L683,367.74h26.19C728.4,367.74,739.58,359.07,739.74,342.65Z" transform="translate(-0.01)"/><path d="M537.85,361.9a73.21,73.21,0,0,1-6.31,20.74,60.53,60.53,0,0,1-14.17,18.8,58.74,58.74,0,0,1-20.28,11.73,65.2,65.2,0,0,1-21.25,3.43,57.08,57.08,0,0,1-20.26-3.42,40,40,0,0,1-16.87-11.72A41.59,41.59,0,0,1,430,382.65a64.52,64.52,0,0,1-.28-20.75A73.32,73.32,0,0,1,436,341.14a60.55,60.55,0,0,1,14.2-18.78,58.53,58.53,0,0,1,20.27-11.7,65.62,65.62,0,0,1,21.23-3.41A57,57,0,0,1,512,310.67a40,40,0,0,1,16.85,11.7,41.74,41.74,0,0,1,8.73,18.78A64.52,64.52,0,0,1,537.85,361.9Zm-19.64,0c1.42-10.36.51-20.13-4.56-26.95A24.34,24.34,0,0,0,503.51,327a36.4,36.4,0,0,0-14.25-2.67,42.44,42.44,0,0,0-15,2.68,36.59,36.59,0,0,0-12.44,8c-7,6.82-10.78,16.58-12.37,26.93C448,372.24,448.94,382,454,388.79a24.35,24.35,0,0,0,10.13,7.94,36.43,36.43,0,0,0,14.22,2.67,42.76,42.76,0,0,0,15-2.66,36.61,36.61,0,0,0,12.44-7.93C512.84,382,516.61,372.25,518.21,361.9Z" transform="translate(-0.01)"/><path d="M734.77,281.18H731.3l.42-2h9.43l-.42,2h-3.45L735.52,290H733Zm19.91-2L752.53,290h-2.35l1.27-6.43-4.13,5.29h-1.11L744,283.47l-1.3,6.49h-2.35l2.17-10.82h2l2.7,6.74,5.29-6.74Z" transform="translate(-0.01)"/><g class="cls-2"><rect x="723.72" y="271.99" width="31.87" height="21.36"/></g><rect class="cls-3" width="841.89" height="493.71"/></svg>